<?xml version="1.0" encoding="UTF-8" standalone="no"?>
<!DOCTYPE svg PUBLIC "-//W3C//DTD SVG 1.1//EN" "http://www.w3.org/Graphics/SVG/1.1/DTD/svg11.dtd">
<svg version="1.1" xmlns="http://www.w3.org/2000/svg" xmlns:xlink="http://www.w3.org/1999/xlink" preserveAspectRatio="xMidYMid meet" viewBox="0 0 640 640" width="125" height="125"><defs><path d="M87.31 247.02L309.17 86.94L531.04 247.02L446.29 506.04L172.06 506.04L87.31 247.02Z" id="e1SQfNoiDN"></path><path d="M371.34 304.7C371.34 336.95 344.54 363.13 311.53 363.13C278.52 363.13 251.72 336.95 251.72 304.7C251.72 272.45 278.52 246.27 311.53 246.27C344.54 246.27 371.34 272.45 371.34 304.7Z" id="ecdXswj2Y"></path><path d="M265.52 345.37L258.06 352.09L250.6 358.81L241.64 364.78L232.69 370L223.73 374.48L214.78 379.7L205.82 384.18L197.61 390.15L188.66 395.37L180.45 401.34L173.73 408.81L169.25 417.76L165.52 427.46L164.03 437.91L164.03 448.36L162.54 458.81" id="aOkVqm8GG"></path><path d="M355.37 347.91L362.84 354.63L370.3 361.34L379.25 367.31L388.21 372.54L397.16 377.01L406.12 382.24L415.07 386.72L423.28 392.69L432.24 397.91L440.45 403.88L447.16 411.34L451.64 420.3L455.37 430L456.87 440.45L456.87 450.9L458.36 461.34" id="a3EMwFvkqt"></path></defs><g><g><g><use xlink:href="#e1SQfNoiDN" opacity="1" fill="#ffffff" fill-opacity="0"></use><g><use xlink:href="#e1SQfNoiDN" opacity="1" fill-opacity="0" stroke="#ffffff" stroke-width="6" stroke-opacity="1"></use></g></g><g><g><filter id="shadow7688617" x="242.72" y="237.27" width="138.63" height="135.87" filterUnits="userSpaceOnUse" primitiveUnits="userSpaceOnUse"><feFlood></feFlood><feComposite in2="SourceAlpha" operator="in"></feComposite><feGaussianBlur stdDeviation="1"></feGaussianBlur><feOffset dx="1" dy="1" result="afterOffset"></feOffset><feFlood flood-color="#000000" flood-opacity="0.5"></feFlood><feComposite in2="afterOffset" operator="in"></feComposite><feMorphology operator="dilate" radius="1"></feMorphology><feComposite in2="SourceAlpha" operator="out"></feComposite></filter><path d="M371.34 304.7C371.34 336.95 344.54 363.13 311.53 363.13C278.52 363.13 251.72 336.95 251.72 304.7C251.72 272.45 278.52 246.27 311.53 246.27C344.54 246.27 371.34 272.45 371.34 304.7Z" id="g8AxINLr3c" fill="white" fill-opacity="1" filter="url(#shadow7688617)"></path></g><use xlink:href="#ecdXswj2Y" opacity="1" fill="#ffffff" fill-opacity="0"></use><g><use xlink:href="#ecdXswj2Y" opacity="1" fill-opacity="0" stroke="#ffffff" stroke-width="6" stroke-opacity="1"></use></g></g><g><use xlink:href="#aOkVqm8GG" opacity="1" fill="#ffffff" fill-opacity="0"></use><g><use xlink:href="#aOkVqm8GG" opacity="1" fill-opacity="0" stroke="#ffffff" stroke-width="6" stroke-opacity="1"></use></g></g><g><use xlink:href="#a3EMwFvkqt" opacity="1" fill="#ffffff" fill-opacity="0"></use><g><use xlink:href="#a3EMwFvkqt" opacity="1" fill-opacity="0" stroke="#ffffff" stroke-width="6" stroke-opacity="1"></use></g></g></g></g></svg>