<?xml version="1.0" encoding="UTF-8" standalone="no"?>
<!DOCTYPE svg PUBLIC "-//W3C//DTD SVG 1.1//EN" "http://www.w3.org/Graphics/SVG/1.1/DTD/svg11.dtd">
<svg version="1.1" xmlns="http://www.w3.org/2000/svg" xmlns:xlink="http://www.w3.org/1999/xlink" preserveAspectRatio="xMidYMid meet" viewBox="0 0 640 640" width="125" height="125"><defs><path d="M301.84 75.16L537.23 244.68L447.32 518.97L156.38 518.97L66.47 244.68L301.84 75.16Z" id="c1UEhztboT"></path><path d="M301.85 371.81C272.85 371.81 249.31 348.46 249.31 319.69C249.31 290.93 272.85 267.58 301.85 267.58C330.85 267.58 354.39 290.93 354.39 319.69C354.39 348.46 330.85 371.81 301.85 371.81Z" id="e1lfyXEuV9"></path><path d="M301.85 371.81C272.85 371.81 249.31 348.46 249.31 319.69C249.31 290.93 272.85 267.58 301.85 267.58C330.85 267.58 354.39 290.93 354.39 319.69C354.39 348.46 330.85 371.81 301.85 371.81Z" id="ayZmr2SG6"></path><path d="M155.82 345.31L152.93 347.81L150.04 350.31L146.57 352.53L143.1 354.47L139.63 356.14L136.17 358.08L132.7 359.75L129.52 361.97L126.05 363.91L122.87 366.13L120.27 368.91L118.53 372.24L117.09 375.85L116.51 379.73L116.51 383.62L115.93 387.51" id="a7hePYfQi"></path><path d="M340.36 358.23L347.98 367.2L355.6 376.16L364.73 384.13L373.87 391.11L383 397.08L392.14 404.06L401.28 410.04L409.65 418.01L418.79 424.97L427.17 432.94L434.02 442.9L438.59 454.86L442.39 467.81L443.93 481.76L443.93 495.71L445.45 509.64" id="c1S7kdjUWF"></path><path d="M406.93 355.97C377.93 355.97 354.39 332.62 354.39 303.85C354.39 275.09 377.93 251.74 406.93 251.74C435.93 251.74 459.47 275.09 459.47 303.85C459.47 332.62 435.93 355.97 406.93 355.97Z" id="c6RFyf1qDl"></path><path d="M193.42 355.97C164.42 355.97 140.88 332.62 140.88 303.85C140.88 275.09 164.42 251.74 193.42 251.74C222.42 251.74 245.96 275.09 245.96 303.85C245.96 332.62 222.42 355.97 193.42 355.97Z" id="dm6hXgQN9"></path><path d="M446.76 336.92L450.06 339.42L453.35 341.92L457.31 344.14L461.26 346.08L465.22 347.75L469.17 349.69L473.13 351.36L476.75 353.58L480.71 355.52L484.34 357.74L487.3 360.52L489.28 363.85L490.93 367.46L491.59 371.35L491.59 375.23L492.25 379.12" id="aqCqipU6U"></path><path d="M267.43 362.4L260.88 371.37L254.32 380.34L246.45 388.31L238.59 395.28L230.72 401.26L222.85 408.22L214.98 414.2L207.77 422.17L199.91 429.14L192.7 437.11L186.79 447.08L182.86 459.02L179.58 471.97L178.27 485.92L178.27 499.86L176.96 513.81" id="a1bedQfejG"></path></defs><g><g><g><use xlink:href="#c1UEhztboT" opacity="1" fill="#000000" fill-opacity="0"></use><g><use xlink:href="#c1UEhztboT" opacity="1" fill-opacity="0" stroke="#ffffff" stroke-width="6" stroke-opacity="1"></use></g></g><g><use xlink:href="#e1lfyXEuV9" opacity="1" fill="#ffffff" fill-opacity="0"></use><g><use xlink:href="#e1lfyXEuV9" opacity="1" fill-opacity="0" stroke="#ffffff" stroke-width="1" stroke-opacity="1"></use></g></g><g><use xlink:href="#ayZmr2SG6" opacity="1" fill="#000000" fill-opacity="0"></use><g><use xlink:href="#ayZmr2SG6" opacity="1" fill-opacity="0" stroke="#ffffff" stroke-width="6" stroke-opacity="1"></use></g></g><g><use xlink:href="#a7hePYfQi" opacity="1" fill="#000000" fill-opacity="0"></use><g><use xlink:href="#a7hePYfQi" opacity="1" fill-opacity="0" stroke="#ffffff" stroke-width="6" stroke-opacity="1"></use></g></g><g><use xlink:href="#c1S7kdjUWF" opacity="1" fill="#000000" fill-opacity="0"></use><g><use xlink:href="#c1S7kdjUWF" opacity="1" fill-opacity="0" stroke="#ffffff" stroke-width="6" stroke-opacity="1"></use></g></g><g><use xlink:href="#c6RFyf1qDl" opacity="1" fill="#000000" fill-opacity="0"></use><g><use xlink:href="#c6RFyf1qDl" opacity="1" fill-opacity="0" stroke="#ffffff" stroke-width="6" stroke-opacity="1"></use></g></g><g><use xlink:href="#dm6hXgQN9" opacity="1" fill="#000000" fill-opacity="0"></use><g><use xlink:href="#dm6hXgQN9" opacity="1" fill-opacity="0" stroke="#ffffff" stroke-width="6" stroke-opacity="1"></use></g></g><g><use xlink:href="#aqCqipU6U" opacity="1" fill="#000000" fill-opacity="0"></use><g><use xlink:href="#aqCqipU6U" opacity="1" fill-opacity="0" stroke="#ffffff" stroke-width="6" stroke-opacity="1"></use></g></g><g><use xlink:href="#a1bedQfejG" opacity="1" fill="#000000" fill-opacity="0"></use><g><use xlink:href="#a1bedQfejG" opacity="1" fill-opacity="0" stroke="#ffffff" stroke-width="6" stroke-opacity="1"></use></g></g></g></g></svg>